<svg version="1.1" id="Layer_1" xmlns="http://www.w3.org/2000/svg" xmlns:xlink="http://www.w3.org/1999/xlink" x="0px" y="0px"
	 width="100%" viewBox="0 0 552 203" enable-background="new 0 0 552 203" xml:space="preserve">
<path fill="none" opacity="1.000000" stroke="none" 
	d="
M345.000000,204.000000 
	C230.000000,204.000000 115.500000,204.000000 1.000000,204.000000 
	C1.000000,136.333328 1.000000,68.666664 1.000000,1.000000 
	C185.000000,1.000000 369.000000,1.000000 553.000000,1.000000 
	C553.000000,68.666664 553.000000,136.333328 553.000000,204.000000 
	C483.833344,204.000000 414.666656,204.000000 345.000000,204.000000 
M241.775833,99.083771 
	C242.191269,104.225983 242.033875,109.498177 243.163879,114.478241 
	C244.651917,121.036209 246.311951,127.813110 249.441010,133.671783 
	C252.914871,140.176102 260.812134,140.089371 265.080963,134.004684 
	C267.309784,130.827789 269.128387,126.978813 269.844421,123.189995 
	C273.335968,104.714760 272.947784,86.039917 270.570251,67.528084 
	C269.403839,58.446247 266.658112,49.157936 254.555786,48.601135 
	C254.395691,48.593773 254.237534,48.506866 254.081772,48.448277 
	C248.305328,46.275509 246.801987,47.004795 245.074646,52.984547 
	C244.568970,54.735077 244.065384,56.539902 243.958649,58.343388 
	C243.173553,71.607635 242.489395,84.877861 241.775833,99.083771 
M145.570374,101.604286 
	C144.948761,96.879272 145.936584,93.645012 151.322357,91.958206 
	C157.247955,90.102325 160.197357,85.015999 160.423676,78.867821 
	C160.643112,72.906311 160.638550,66.891068 160.092697,60.958275 
	C159.393692,53.360817 154.337662,49.467392 146.607391,49.171154 
	C142.004044,48.994747 140.852600,51.001881 141.106812,55.164833 
	C141.511993,61.799965 141.777603,68.458504 141.722321,75.103981 
	C141.575912,92.699989 141.182938,110.293877 141.003189,127.889786 
	C140.976227,130.528107 141.377045,133.216858 141.970779,135.792191 
	C142.199844,136.785751 143.517410,137.528351 144.339050,138.385300 
	C145.069397,137.424240 145.965439,136.541519 146.470215,135.473816 
	C146.792023,134.793091 146.558411,133.837540 146.532486,133.006531 
	C146.216217,122.865265 145.892288,112.724243 145.570374,101.604286 
M220.936020,112.803673 
	C222.418106,119.105019 223.759064,125.445541 225.488800,131.678162 
	C225.885101,133.106049 227.620148,134.162415 228.739075,135.389755 
	C228.800735,133.820297 229.255417,132.144699 228.864517,130.697479 
	C223.805222,111.966858 217.654907,93.517593 223.466949,73.564606 
	C225.821671,65.480766 225.919815,56.739613 227.044800,48.297562 
	C226.461151,48.072128 225.877518,47.846695 225.293869,47.621262 
	C224.556183,49.060009 223.402664,50.432762 223.161819,51.950359 
	C222.537476,55.884472 222.417358,59.895557 221.907593,63.851646 
	C221.176346,69.526756 220.277924,75.180328 219.450851,80.843094 
	C216.218079,71.421669 214.266769,62.164181 212.019012,52.979237 
	C211.688980,51.630684 209.950562,50.626793 208.863785,49.463428 
	C208.683960,50.904720 208.094055,52.438953 208.395966,53.771072 
	C209.642593,59.271454 211.428894,64.657310 212.521439,70.183212 
	C214.860870,82.015572 218.479919,93.712776 215.023651,106.073517 
	C212.748764,114.209320 211.225723,122.570442 209.730896,130.896194 
	C209.441223,132.509521 210.839355,134.425873 211.458923,136.202454 
	C212.254471,134.634460 213.488785,133.141617 213.772308,131.485962 
	C215.281036,122.675407 216.551559,113.824059 217.904556,104.986839 
	C218.262604,104.973610 218.620667,104.960373 218.978729,104.947144 
	C219.582245,107.292534 220.185760,109.637917 220.936020,112.803673 
M328.267944,48.531017 
	C324.533630,48.633423 320.491943,46.905849 317.219910,49.760700 
	C317.204224,50.318714 317.188507,50.876732 317.172791,51.434746 
	C320.243927,51.807442 323.315033,52.180138 327.381622,52.673641 
	C327.381622,58.192951 327.356171,63.643230 327.386261,69.093208 
	C327.489136,87.720192 327.595764,106.347191 327.741150,124.973877 
	C327.766907,128.272156 327.947449,131.467407 323.119965,131.241135 
	C322.557709,131.214798 321.933838,132.503036 321.338501,133.181824 
	C321.426971,133.696945 321.515411,134.212051 321.603851,134.727158 
	C327.967865,134.727158 334.333374,134.789841 340.693573,134.634064 
	C341.358917,134.617752 342.642365,133.115753 342.501160,132.642899 
	C342.235138,131.752243 341.260620,130.798340 340.356445,130.445923 
	C339.332275,130.046738 338.036591,130.104156 336.903229,130.268463 
	C332.833221,130.858505 331.814911,128.970917 331.804077,125.166389 
	C331.777557,115.853729 331.195618,106.543564 331.112366,97.229935 
	C330.981750,82.613785 331.077698,67.995621 331.077698,53.080284 
	C333.945862,53.080284 336.244049,53.080284 339.090332,53.080284 
	C336.612366,48.354126 332.526398,49.306892 328.267944,48.531017 
M185.999542,70.502663 
	C185.999542,64.742813 185.999542,58.982960 185.999542,52.971809 
	C188.706375,52.971809 190.939682,52.971809 193.172989,52.971809 
	C193.285858,52.519821 193.398743,52.067833 193.511612,51.615841 
	C192.027954,50.845299 190.608429,49.606968 189.048462,49.393166 
	C184.619812,48.786194 180.137299,48.449219 175.668030,48.343884 
	C174.479324,48.315868 173.261948,49.503948 172.057739,50.133682 
	C173.347061,50.803116 174.728455,52.174091 175.909546,52.019051 
	C180.709244,51.389023 182.163162,53.581295 181.857529,57.924603 
	C181.729691,59.741230 181.949356,61.579643 181.943130,63.407917 
	C181.892288,78.363083 181.815628,93.318169 181.767532,108.273346 
	C181.743683,115.688652 181.763397,123.104095 181.763397,130.123901 
	C179.548294,131.006104 177.751389,131.721756 174.631638,132.964264 
	C176.294281,133.808044 176.727036,134.210739 177.173508,134.226578 
	C183.146057,134.438400 189.120773,134.677368 195.094193,134.659302 
	C195.799973,134.657150 196.501282,133.172226 197.204666,132.374649 
	C196.409668,131.695877 195.713303,130.730270 194.793655,130.414017 
	C193.743698,130.052963 192.471085,130.103607 191.336899,130.266159 
	C187.421158,130.827362 186.561005,128.791107 186.537262,125.364235 
	C186.412964,107.409073 186.152786,89.454849 185.999542,70.502663 
M394.372528,72.270729 
	C404.581696,93.145805 401.995728,115.635658 401.592957,137.849991 
	C402.412018,137.918396 403.231049,137.986816 404.050079,138.055222 
	C404.660950,135.063431 405.769928,132.074692 405.788330,129.079239 
	C405.841522,120.432831 405.618744,111.775787 405.199524,103.137711 
	C404.690430,92.647881 404.480499,82.219337 407.469452,71.998199 
	C409.194427,66.099236 410.959198,60.209690 412.535004,54.270508 
	C413.078491,52.222149 413.104340,50.036446 413.366669,47.913486 
	C412.682709,47.772800 411.998718,47.632111 411.314758,47.491425 
	C405.746460,58.230087 406.280487,70.904877 401.500580,82.787743 
	C397.675110,71.200966 394.102386,60.379658 390.529663,49.558350 
	C388.685272,50.493759 387.968048,51.150257 388.088013,51.564022 
	C390.024353,58.242081 392.067169,64.889282 394.372528,72.270729 
M286.950378,84.342247 
	C286.699921,100.486229 286.504822,116.631401 286.156006,132.773254 
	C286.078888,136.341919 286.981049,138.077942 290.986145,137.543381 
	C294.430603,137.083618 297.975372,137.416504 301.442810,137.069382 
	C303.009857,136.912521 304.496887,135.955887 306.020203,135.362091 
	C304.424774,134.567154 302.883698,133.261246 301.222504,133.084534 
	C297.848846,132.725677 294.410278,132.977295 290.941467,132.977295 
	C290.941467,119.549706 290.929993,107.108665 290.944519,94.667656 
	C290.960693,80.842606 291.038116,67.017387 290.965088,53.192894 
	C290.958618,51.966087 290.039062,50.744102 289.543549,49.519878 
	C288.679169,49.701817 287.814789,49.883759 286.950409,50.065697 
	C286.950409,61.169067 286.950409,72.272438 286.950378,84.342247 
M368.335419,84.810120 
	C367.782227,73.960037 367.229034,63.109959 366.651947,51.791248 
	C369.745605,52.121639 371.726013,52.591133 373.661072,52.447887 
	C374.923126,52.354469 376.119324,51.370953 377.345001,50.786156 
	C376.259430,50.101086 375.219604,48.919926 374.080505,48.814831 
	C368.451569,48.295452 362.798370,48.015575 357.148895,47.756687 
	C355.697083,47.690151 354.227692,48.006130 352.766388,48.146381 
	C352.699127,48.805157 352.631866,49.463936 352.564636,50.122715 
	C356.065033,50.849636 359.565430,51.576557 363.245941,52.340881 
	C364.412720,72.688492 365.636200,93.088692 366.720062,113.496307 
	C367.046356,119.639488 366.898804,125.807266 367.184692,131.953705 
	C367.232178,132.974030 368.394714,133.942474 369.041931,134.934875 
	C369.763062,133.978363 370.839081,133.114014 371.117310,132.042496 
	C371.482330,130.636780 371.306641,129.062088 371.211121,127.569809 
	C370.318298,113.621155 369.392853,99.674591 368.335419,84.810120 
z"/>
<path fill="#EDEDED" opacity="1.000000" stroke="none" 
	d="
M241.774643,98.614990 
	C242.489395,84.877861 243.173553,71.607635 243.958649,58.343388 
	C244.065384,56.539902 244.568970,54.735077 245.074646,52.984547 
	C246.801987,47.004795 248.305328,46.275509 254.081772,48.448277 
	C254.237534,48.506866 254.395691,48.593773 254.555786,48.601135 
	C266.658112,49.157936 269.403839,58.446247 270.570251,67.528084 
	C272.947784,86.039917 273.335968,104.714760 269.844421,123.189995 
	C269.128387,126.978813 267.309784,130.827789 265.080963,134.004684 
	C260.812134,140.089371 252.914871,140.176102 249.441010,133.671783 
	C246.311951,127.813110 244.651917,121.036209 243.163879,114.478241 
	C242.033875,109.498177 242.191269,104.225983 241.774643,98.614990 
M266.029602,65.729065 
	C265.261414,56.522919 260.902985,52.092064 252.974869,51.783028 
	C249.629883,51.652641 248.488190,53.112602 248.222748,55.959049 
	C246.428238,75.202301 244.527878,94.473373 247.145111,113.761642 
	C247.916779,119.448692 249.423447,125.224152 251.722580,130.463531 
	C254.077805,135.830750 259.568146,135.769608 262.534363,130.648407 
	C264.167114,127.829407 265.239319,124.541122 265.900421,121.327835 
	C269.646698,103.119606 267.102051,84.860901 266.029602,65.729065 
z"/>
<path fill="#EAEAEA" opacity="1.000000" stroke="none" 
	d="
M145.570358,102.093719 
	C145.892288,112.724243 146.216217,122.865265 146.532486,133.006531 
	C146.558411,133.837540 146.792023,134.793091 146.470215,135.473816 
	C145.965439,136.541519 145.069397,137.424240 144.339050,138.385300 
	C143.517410,137.528351 142.199844,136.785751 141.970779,135.792191 
	C141.377045,133.216858 140.976227,130.528107 141.003189,127.889786 
	C141.182938,110.293877 141.575912,92.699989 141.722321,75.103981 
	C141.777603,68.458504 141.511993,61.799965 141.106812,55.164833 
	C140.852600,51.001881 142.004044,48.994747 146.607391,49.171154 
	C154.337662,49.467392 159.393692,53.360817 160.092697,60.958275 
	C160.638550,66.891068 160.643112,72.906311 160.423676,78.867821 
	C160.197357,85.015999 157.247955,90.102325 151.322357,91.958206 
	C145.936584,93.645012 144.948761,96.879272 145.570358,102.093719 
M154.972626,81.140472 
	C155.444641,75.216522 156.027222,69.298042 156.320587,63.365253 
	C156.407425,61.608826 155.895142,59.733086 155.279312,58.050404 
	C154.024582,54.622059 151.053192,52.935028 147.846832,53.851421 
	C146.603821,54.206673 145.656464,57.696735 145.614578,59.779652 
	C145.458115,67.558624 145.738876,75.346176 145.841339,83.130707 
	C145.868790,85.217331 145.845490,87.304619 145.845490,89.550186 
	C151.522537,89.618866 153.228012,85.848267 154.972626,81.140472 
z"/>
<path fill="#E9E9E9" opacity="1.000000" stroke="none" 
	d="
M220.862656,112.393494 
	C220.185760,109.637917 219.582245,107.292534 218.978729,104.947144 
	C218.620667,104.960373 218.262604,104.973610 217.904556,104.986839 
	C216.551559,113.824059 215.281036,122.675407 213.772308,131.485962 
	C213.488785,133.141617 212.254471,134.634460 211.458923,136.202454 
	C210.839355,134.425873 209.441223,132.509521 209.730896,130.896194 
	C211.225723,122.570442 212.748764,114.209320 215.023651,106.073517 
	C218.479919,93.712776 214.860870,82.015572 212.521439,70.183212 
	C211.428894,64.657310 209.642593,59.271454 208.395966,53.771072 
	C208.094055,52.438953 208.683960,50.904720 208.863800,49.463428 
	C209.950562,50.626793 211.688980,51.630684 212.019012,52.979237 
	C214.266769,62.164181 216.218079,71.421669 219.450851,80.843094 
	C220.277924,75.180328 221.176346,69.526756 221.907593,63.851646 
	C222.417358,59.895557 222.537476,55.884472 223.161819,51.950359 
	C223.402664,50.432762 224.556183,49.060009 225.293869,47.621262 
	C225.877518,47.846695 226.461151,48.072128 227.044800,48.297562 
	C225.919815,56.739613 225.821671,65.480766 223.466949,73.564606 
	C217.654907,93.517593 223.805222,111.966858 228.864517,130.697479 
	C229.255417,132.144699 228.800735,133.820297 228.739075,135.389755 
	C227.620148,134.162415 225.885101,133.106049 225.488800,131.678162 
	C223.759064,125.445541 222.418106,119.105019 220.862656,112.393494 
z"/>
<path fill="#E8E8E8" opacity="1.000000" stroke="none" 
	d="
M328.717072,48.538467 
	C332.526398,49.306892 336.612366,48.354126 339.090332,53.080284 
	C336.244049,53.080284 333.945862,53.080284 331.077698,53.080284 
	C331.077698,67.995621 330.981750,82.613785 331.112366,97.229935 
	C331.195618,106.543564 331.777557,115.853729 331.804077,125.166389 
	C331.814911,128.970917 332.833221,130.858505 336.903229,130.268463 
	C338.036591,130.104156 339.332275,130.046738 340.356445,130.445923 
	C341.260620,130.798340 342.235138,131.752243 342.501160,132.642899 
	C342.642365,133.115753 341.358917,134.617752 340.693573,134.634064 
	C334.333374,134.789841 327.967865,134.727158 321.603851,134.727158 
	C321.515411,134.212051 321.426971,133.696945 321.338501,133.181824 
	C321.933838,132.503036 322.557709,131.214798 323.119965,131.241135 
	C327.947449,131.467407 327.766907,128.272156 327.741150,124.973877 
	C327.595764,106.347191 327.489136,87.720192 327.386261,69.093208 
	C327.356171,63.643230 327.381622,58.192951 327.381622,52.673641 
	C323.315033,52.180138 320.243927,51.807442 317.172791,51.434746 
	C317.188507,50.876732 317.204224,50.318714 317.219910,49.760700 
	C320.491943,46.905849 324.533630,48.633423 328.717072,48.538467 
z"/>
<path fill="#E9E9E9" opacity="1.000000" stroke="none" 
	d="
M185.969696,71.001480 
	C186.152786,89.454849 186.412964,107.409073 186.537262,125.364235 
	C186.561005,128.791107 187.421158,130.827362 191.336899,130.266159 
	C192.471085,130.103607 193.743698,130.052963 194.793655,130.414017 
	C195.713303,130.730270 196.409668,131.695877 197.204666,132.374649 
	C196.501282,133.172226 195.799973,134.657150 195.094193,134.659302 
	C189.120773,134.677368 183.146057,134.438400 177.173508,134.226578 
	C176.727036,134.210739 176.294281,133.808044 174.631638,132.964264 
	C177.751389,131.721756 179.548294,131.006104 181.763397,130.123901 
	C181.763397,123.104095 181.743683,115.688652 181.767532,108.273346 
	C181.815628,93.318169 181.892288,78.363083 181.943130,63.407917 
	C181.949356,61.579643 181.729691,59.741230 181.857529,57.924603 
	C182.163162,53.581295 180.709244,51.389023 175.909546,52.019051 
	C174.728455,52.174091 173.347061,50.803116 172.057739,50.133682 
	C173.261948,49.503948 174.479324,48.315868 175.668030,48.343884 
	C180.137299,48.449219 184.619812,48.786194 189.048462,49.393166 
	C190.608429,49.606968 192.027954,50.845299 193.511612,51.615841 
	C193.398743,52.067833 193.285858,52.519821 193.172989,52.971809 
	C190.939682,52.971809 188.706375,52.971809 185.999542,52.971809 
	C185.999542,58.982960 185.999542,64.742813 185.969696,71.001480 
z"/>
<path fill="#E6E6E6" opacity="1.000000" stroke="none" 
	d="
M394.229187,71.907104 
	C392.067169,64.889282 390.024353,58.242081 388.088013,51.564022 
	C387.968048,51.150257 388.685272,50.493759 390.529663,49.558350 
	C394.102386,60.379658 397.675110,71.200966 401.500580,82.787743 
	C406.280487,70.904877 405.746460,58.230087 411.314758,47.491425 
	C411.998718,47.632111 412.682709,47.772800 413.366669,47.913486 
	C413.104340,50.036446 413.078491,52.222149 412.535004,54.270508 
	C410.959198,60.209690 409.194427,66.099236 407.469452,71.998199 
	C404.480499,82.219337 404.690430,92.647881 405.199524,103.137711 
	C405.618744,111.775787 405.841522,120.432831 405.788330,129.079239 
	C405.769928,132.074692 404.660950,135.063431 404.050079,138.055222 
	C403.231049,137.986816 402.412018,137.918396 401.592957,137.849991 
	C401.995728,115.635658 404.581696,93.145805 394.229187,71.907104 
z"/>
<path fill="#EBEBEB" opacity="1.000000" stroke="none" 
	d="
M286.950378,83.859024 
	C286.950409,72.272438 286.950409,61.169067 286.950409,50.065697 
	C287.814789,49.883759 288.679169,49.701817 289.543549,49.519878 
	C290.039062,50.744102 290.958618,51.966087 290.965088,53.192894 
	C291.038116,67.017387 290.960693,80.842606 290.944519,94.667656 
	C290.929993,107.108665 290.941467,119.549706 290.941467,132.977295 
	C294.410278,132.977295 297.848846,132.725677 301.222504,133.084534 
	C302.883698,133.261246 304.424774,134.567154 306.020203,135.362091 
	C304.496887,135.955887 303.009857,136.912521 301.442810,137.069382 
	C297.975372,137.416504 294.430603,137.083618 290.986145,137.543381 
	C286.981049,138.077942 286.078888,136.341919 286.156006,132.773254 
	C286.504822,116.631401 286.699921,100.486229 286.950378,83.859024 
z"/>
<path fill="#E7E7E7" opacity="1.000000" stroke="none" 
	d="
M368.406128,85.268768 
	C369.392853,99.674591 370.318298,113.621155 371.211121,127.569809 
	C371.306641,129.062088 371.482330,130.636780 371.117310,132.042496 
	C370.839081,133.114014 369.763062,133.978363 369.041931,134.934875 
	C368.394714,133.942474 367.232178,132.974030 367.184692,131.953705 
	C366.898804,125.807266 367.046356,119.639488 366.720062,113.496307 
	C365.636200,93.088692 364.412720,72.688492 363.245941,52.340881 
	C359.565430,51.576557 356.065033,50.849636 352.564636,50.122715 
	C352.631866,49.463936 352.699127,48.805157 352.766388,48.146381 
	C354.227692,48.006130 355.697083,47.690151 357.148895,47.756687 
	C362.798370,48.015575 368.451569,48.295452 374.080505,48.814831 
	C375.219604,48.919926 376.259430,50.101086 377.345001,50.786156 
	C376.119324,51.370953 374.923126,52.354469 373.661072,52.447887 
	C371.726013,52.591133 369.745605,52.121639 366.651947,51.791248 
	C367.229034,63.109959 367.782227,73.960037 368.406128,85.268768 
z"/>
<path fill="#040404" opacity="1.000000" stroke="none" 
	d="
M266.038269,66.173737 
	C267.102051,84.860901 269.646698,103.119606 265.900421,121.327835 
	C265.239319,124.541122 264.167114,127.829407 262.534363,130.648407 
	C259.568146,135.769608 254.077805,135.830750 251.722580,130.463531 
	C249.423447,125.224152 247.916779,119.448692 247.145111,113.761642 
	C244.527878,94.473373 246.428238,75.202301 248.222748,55.959049 
	C248.488190,53.112602 249.629883,51.652641 252.974869,51.783028 
	C260.902985,52.092064 265.261414,56.522919 266.038269,66.173737 
z"/>
<path fill="#0A0A0A" opacity="1.000000" stroke="none" 
	d="
M154.891846,81.539238 
	C153.228012,85.848267 151.522537,89.618866 145.845490,89.550186 
	C145.845490,87.304619 145.868790,85.217331 145.841339,83.130707 
	C145.738876,75.346176 145.458115,67.558624 145.614578,59.779652 
	C145.656464,57.696735 146.603821,54.206673 147.846832,53.851421 
	C151.053192,52.935028 154.024582,54.622059 155.279312,58.050404 
	C155.895142,59.733086 156.407425,61.608826 156.320587,63.365253 
	C156.027222,69.298042 155.444641,75.216522 154.891846,81.539238 
z"/>
</svg>